<mxfile host="app.diagrams.net" modified="2022-11-25T18:42:11.439Z" agent="5.0 (Windows NT 10.0; Win64; x64) AppleWebKit/537.36 (KHTML, like Gecko) Chrome/107.0.0.0 Safari/537.36" version="20.6.0" etag="PbifjXkLjWaH8jtQowq3" type="github">
  <diagram id="D8MDnEg7AwrufYSo7wx9" name="Страница 1">
    <mxGraphModel dx="956" dy="1756" grid="1" gridSize="10" guides="1" tooltips="1" connect="1" arrows="1" fold="1" page="1" pageScale="1" pageWidth="827" pageHeight="1169" math="0" shadow="0">
      <root>
        <mxCell id="0" />
        <mxCell id="1" parent="0" />
        <mxCell id="LjHjcrfRRxeesvYdF5EW-2" value="" style="rounded=1;whiteSpace=wrap;html=1;fillColor=none;dashed=1;" vertex="1" parent="1">
          <mxGeometry x="490" y="-190" width="200" height="320" as="geometry" />
        </mxCell>
        <mxCell id="LjHjcrfRRxeesvYdF5EW-3" value="Application" style="rounded=1;whiteSpace=wrap;html=1;dashed=1;" vertex="1" parent="1">
          <mxGeometry x="530" y="-150" width="120" height="60" as="geometry" />
        </mxCell>
        <mxCell id="LjHjcrfRRxeesvYdF5EW-4" value="Transport" style="rounded=1;whiteSpace=wrap;html=1;dashed=1;" vertex="1" parent="1">
          <mxGeometry x="530" y="-80" width="120" height="60" as="geometry" />
        </mxCell>
        <mxCell id="LjHjcrfRRxeesvYdF5EW-5" value="Internet" style="rounded=1;whiteSpace=wrap;html=1;dashed=1;" vertex="1" parent="1">
          <mxGeometry x="530" y="-10" width="120" height="60" as="geometry" />
        </mxCell>
        <mxCell id="LjHjcrfRRxeesvYdF5EW-6" value="Network" style="rounded=1;whiteSpace=wrap;html=1;dashed=1;" vertex="1" parent="1">
          <mxGeometry x="530" y="60" width="120" height="60" as="geometry" />
        </mxCell>
        <mxCell id="LjHjcrfRRxeesvYdF5EW-7" value="" style="rounded=1;whiteSpace=wrap;html=1;dashed=1;" vertex="1" parent="1">
          <mxGeometry y="-190" width="290" height="40" as="geometry" />
        </mxCell>
        <mxCell id="LjHjcrfRRxeesvYdF5EW-8" value="https://" style="rounded=1;whiteSpace=wrap;html=1;dashed=1;fillColor=#fad7ac;strokeColor=#b46504;" vertex="1" parent="1">
          <mxGeometry x="10" y="-185" width="60" height="30" as="geometry" />
        </mxCell>
        <mxCell id="LjHjcrfRRxeesvYdF5EW-12" value="" style="rounded=1;whiteSpace=wrap;html=1;dashed=1;fillColor=#bac8d3;strokeColor=#23445d;" vertex="1" parent="1">
          <mxGeometry x="80" y="-185" width="200" height="30" as="geometry" />
        </mxCell>
        <mxCell id="LjHjcrfRRxeesvYdF5EW-9" value="google" style="rounded=1;whiteSpace=wrap;html=1;dashed=1;fillColor=#b1ddf0;strokeColor=#10739e;" vertex="1" parent="1">
          <mxGeometry x="90" y="-181.87" width="120" height="23" as="geometry" />
        </mxCell>
        <mxCell id="LjHjcrfRRxeesvYdF5EW-10" value=".com" style="rounded=1;whiteSpace=wrap;html=1;dashed=1;fillColor=#d0cee2;strokeColor=#56517e;" vertex="1" parent="1">
          <mxGeometry x="220" y="-181.87" width="50" height="23" as="geometry" />
        </mxCell>
        <mxCell id="LjHjcrfRRxeesvYdF5EW-13" value="protocol" style="text;html=1;strokeColor=none;fillColor=none;align=center;verticalAlign=middle;whiteSpace=wrap;rounded=0;dashed=1;" vertex="1" parent="1">
          <mxGeometry x="10" y="-240" width="60" height="30" as="geometry" />
        </mxCell>
        <mxCell id="LjHjcrfRRxeesvYdF5EW-14" value="domain name" style="text;html=1;strokeColor=none;fillColor=none;align=center;verticalAlign=middle;whiteSpace=wrap;rounded=0;dashed=1;" vertex="1" parent="1">
          <mxGeometry x="90" y="-240" width="90" height="30" as="geometry" />
        </mxCell>
        <mxCell id="LjHjcrfRRxeesvYdF5EW-15" value="domain zone" style="text;html=1;strokeColor=none;fillColor=none;align=center;verticalAlign=middle;whiteSpace=wrap;rounded=0;dashed=1;" vertex="1" parent="1">
          <mxGeometry x="215" y="-240" width="75" height="30" as="geometry" />
        </mxCell>
        <mxCell id="LjHjcrfRRxeesvYdF5EW-19" value="&lt;div style=&quot;&quot;&gt;&lt;span style=&quot;background-color: initial;&quot;&gt;Браузер определяет, введенный текст является поисковым запросом или URL&lt;/span&gt;&lt;/div&gt;" style="rounded=0;whiteSpace=wrap;html=1;dashed=1;align=left;" vertex="1" parent="1">
          <mxGeometry y="-130" width="200" height="60" as="geometry" />
        </mxCell>
        <mxCell id="LjHjcrfRRxeesvYdF5EW-20" value="&lt;span style=&quot;background-color: initial;&quot;&gt;Браузер определил, что это URL&lt;/span&gt;" style="rounded=0;whiteSpace=wrap;html=1;dashed=1;align=left;" vertex="1" parent="1">
          <mxGeometry y="-60" width="200" height="60" as="geometry" />
        </mxCell>
        <mxCell id="LjHjcrfRRxeesvYdF5EW-21" value="Проверка протокола" style="rounded=0;whiteSpace=wrap;html=1;dashed=1;align=left;" vertex="1" parent="1">
          <mxGeometry y="10" width="200" height="60" as="geometry" />
        </mxCell>
        <mxCell id="LjHjcrfRRxeesvYdF5EW-22" value="Если http, браузер проверяет HSTS, если в списке есть этот url, то https, если нет, то http" style="rounded=0;whiteSpace=wrap;html=1;dashed=1;align=left;" vertex="1" parent="1">
          <mxGeometry y="80" width="200" height="60" as="geometry" />
        </mxCell>
        <mxCell id="LjHjcrfRRxeesvYdF5EW-23" value="Определение порта. По умолчанию, 443 для https, 80 для http" style="rounded=0;whiteSpace=wrap;html=1;dashed=1;align=left;" vertex="1" parent="1">
          <mxGeometry y="150" width="200" height="60" as="geometry" />
        </mxCell>
        <mxCell id="LjHjcrfRRxeesvYdF5EW-24" value="Определив протокол, порт, браузер пытается определить IP арес" style="rounded=0;whiteSpace=wrap;html=1;dashed=1;align=left;" vertex="1" parent="1">
          <mxGeometry y="220" width="200" height="60" as="geometry" />
        </mxCell>
        <mxCell id="LjHjcrfRRxeesvYdF5EW-25" value="Кэш браузера" style="rounded=0;whiteSpace=wrap;html=1;dashed=1;align=left;" vertex="1" parent="1">
          <mxGeometry x="210" y="220" width="90" height="60" as="geometry" />
        </mxCell>
        <mxCell id="LjHjcrfRRxeesvYdF5EW-26" value="файл hosts" style="rounded=0;whiteSpace=wrap;html=1;dashed=1;align=left;" vertex="1" parent="1">
          <mxGeometry x="310" y="220" width="90" height="60" as="geometry" />
        </mxCell>
        <mxCell id="LjHjcrfRRxeesvYdF5EW-27" value="&amp;nbsp;кэш OS" style="rounded=0;whiteSpace=wrap;html=1;dashed=1;align=left;" vertex="1" parent="1">
          <mxGeometry x="410" y="220" width="90" height="60" as="geometry" />
        </mxCell>
        <mxCell id="LjHjcrfRRxeesvYdF5EW-28" value="кэш router" style="rounded=0;whiteSpace=wrap;html=1;dashed=1;align=left;" vertex="1" parent="1">
          <mxGeometry x="510" y="220" width="90" height="60" as="geometry" />
        </mxCell>
        <mxCell id="LjHjcrfRRxeesvYdF5EW-29" value="кэш DNS сервера провайдера" style="rounded=0;whiteSpace=wrap;html=1;dashed=1;align=left;" vertex="1" parent="1">
          <mxGeometry x="610" y="220" width="90" height="60" as="geometry" />
        </mxCell>
        <mxCell id="LjHjcrfRRxeesvYdF5EW-30" value="Корневой сервер" style="rounded=0;whiteSpace=wrap;html=1;dashed=1;align=left;" vertex="1" parent="1">
          <mxGeometry x="710" y="220" width="90" height="60" as="geometry" />
        </mxCell>
        <mxCell id="LjHjcrfRRxeesvYdF5EW-31" value="DNS сервер зоны" style="rounded=0;whiteSpace=wrap;html=1;dashed=1;align=left;" vertex="1" parent="1">
          <mxGeometry x="810" y="220" width="90" height="60" as="geometry" />
        </mxCell>
        <mxCell id="LjHjcrfRRxeesvYdF5EW-32" value="NS сервер в таблице по А записи или CNAME" style="rounded=0;whiteSpace=wrap;html=1;dashed=1;align=left;" vertex="1" parent="1">
          <mxGeometry x="910" y="220" width="90" height="60" as="geometry" />
        </mxCell>
        <mxCell id="LjHjcrfRRxeesvYdF5EW-33" value="TCP/IP" style="text;html=1;strokeColor=none;fillColor=none;align=center;verticalAlign=middle;whiteSpace=wrap;rounded=0;dashed=1;" vertex="1" parent="1">
          <mxGeometry x="560" y="-188.87" width="60" height="30" as="geometry" />
        </mxCell>
      </root>
    </mxGraphModel>
  </diagram>
</mxfile>
